<svg width="800" height="520" viewBox="0 0 800 520" fill="none" xmlns="http://www.w3.org/2000/svg">
  <defs>
    <linearGradient id="sea" x1="0" y1="0" x2="800" y2="520" gradientUnits="userSpaceOnUse">
      <stop stop-color="#0891B2"/>
      <stop offset="1" stop-color="#22C55E"/>
    </linearGradient>
  </defs>
  <rect width="800" height="520" rx="32" fill="url(#sea)"/>
  <circle cx="662" cy="104" r="50" fill="#FDE68A"/>
  <path d="M0 286C70 262 182 234 280 236C416 238 536 296 800 274V520H0V286Z" fill="#7DD3FC" opacity="0.7"/>
  <path d="M0 340C138 314 248 298 354 306C500 316 642 390 800 374V520H0V340Z" fill="#06B6D4" opacity="0.8"/>
  <path d="M0 410C160 392 310 396 450 420C584 442 684 470 800 472V520H0V410Z" fill="#FDE68A"/>
  <path d="M128 392C158 336 186 290 216 236" stroke="#14532D" stroke-width="14" stroke-linecap="round"/>
  <path d="M212 238C182 210 162 176 152 146" stroke="#16A34A" stroke-width="12" stroke-linecap="round"/>
  <path d="M212 238C248 214 286 196 324 188" stroke="#22C55E" stroke-width="12" stroke-linecap="round"/>
  <path d="M212 238C178 246 142 252 106 250" stroke="#4ADE80" stroke-width="12" stroke-linecap="round"/>
  <rect x="452" y="332" width="198" height="56" rx="18" fill="#FFFFFF"/>
  <rect x="488" y="312" width="102" height="26" rx="13" fill="#FFFFFF"/>
  <circle cx="498" cy="392" r="18" fill="#0F172A"/>
  <circle cx="612" cy="392" r="18" fill="#0F172A"/>
  <circle cx="498" cy="392" r="8" fill="#94A3B8"/>
  <circle cx="612" cy="392" r="8" fill="#94A3B8"/>
</svg>