<svg width="800" height="520" viewBox="0 0 800 520" fill="none" xmlns="http://www.w3.org/2000/svg">
  <defs>
    <linearGradient id="bg" x1="80" y1="40" x2="760" y2="500" gradientUnits="userSpaceOnUse">
      <stop stop-color="#7C3AED"/>
      <stop offset="1" stop-color="#F97316"/>
    </linearGradient>
  </defs>
  <rect width="800" height="520" rx="32" fill="url(#bg)"/>
  <circle cx="640" cy="108" r="46" fill="#FDE68A"/>
  <rect x="80" y="210" width="72" height="170" rx="10" fill="#EDE9FE" opacity="0.95"/>
  <rect x="170" y="146" width="92" height="234" rx="10" fill="#DDD6FE" opacity="0.95"/>
  <rect x="280" y="184" width="78" height="196" rx="10" fill="#F5F3FF" opacity="0.95"/>
  <rect x="376" y="116" width="102" height="264" rx="10" fill="#E9D5FF" opacity="0.95"/>
  <rect x="496" y="168" width="84" height="212" rx="10" fill="#F5F3FF" opacity="0.95"/>
  <rect x="598" y="136" width="102" height="244" rx="10" fill="#EDE9FE" opacity="0.95"/>
  <path d="M0 404H800V520H0V404Z" fill="#172554" opacity="0.9"/>
  <path d="M0 426C130 396 252 380 372 380C511 380 640 400 800 434V520H0V426Z" fill="#1E1B4B"/>
  <rect x="278" y="334" width="210" height="48" rx="18" fill="#FFFFFF"/>
  <rect x="310" y="314" width="112" height="28" rx="14" fill="#FFFFFF"/>
  <circle cx="324" cy="388" r="18" fill="#111827"/>
  <circle cx="442" cy="388" r="18" fill="#111827"/>
  <circle cx="324" cy="388" r="8" fill="#94A3B8"/>
  <circle cx="442" cy="388" r="8" fill="#94A3B8"/>
</svg>