<svg width="1200" height="800" viewBox="0 0 1200 800" fill="none" xmlns="http://www.w3.org/2000/svg">
  <defs>
    <linearGradient id="bg3" x1="0" y1="0" x2="1200" y2="800" gradientUnits="userSpaceOnUse">
      <stop stop-color="#F97316"/>
      <stop offset="1" stop-color="#06B6D4"/>
    </linearGradient>
  </defs>
  <rect width="1200" height="800" rx="36" fill="url(#bg3)"/>
  <path d="M0 610C180 560 420 520 1200 620V800H0V610Z" fill="#1E293B" opacity="0.92"/>
  <rect x="280" y="420" width="480" height="115" rx="28" fill="#FFF7ED"/>
  <path d="M400 365H635C690 365 730 398 760 432H345C360 395 390 365 400 365Z" fill="#FED7AA"/>
  <rect x="440" y="385" width="110" height="40" rx="10" fill="#67E8F9" opacity="0.65"/>
  <rect x="560" y="385" width="120" height="40" rx="10" fill="#67E8F9" opacity="0.65"/>
  <circle cx="405" cy="548" r="42" fill="#111827"/>
  <circle cx="670" cy="548" r="42" fill="#111827"/>
  <circle cx="405" cy="548" r="18" fill="#94A3B8"/>
  <circle cx="670" cy="548" r="18" fill="#94A3B8"/>
  <text x="90" y="120" fill="white" font-size="54" font-family="Arial, sans-serif" font-weight="700">Bowo Travel Car 3</text>
  <text x="90" y="176" fill="#FFEDD5" font-size="28" font-family="Arial, sans-serif">Great for outside view, seats, or luggage space</text>
</svg>