<svg width="1200" height="800" viewBox="0 0 1200 800" fill="none" xmlns="http://www.w3.org/2000/svg">
  <defs>
    <linearGradient id="bg1" x1="0" y1="0" x2="1200" y2="800" gradientUnits="userSpaceOnUse">
      <stop stop-color="#0F766E"/>
      <stop offset="1" stop-color="#38BDF8"/>
    </linearGradient>
  </defs>
  <rect width="1200" height="800" rx="36" fill="url(#bg1)"/>
  <circle cx="940" cy="140" r="58" fill="#FDE68A"/>
  <path d="M0 590C170 530 320 500 520 500C700 500 920 545 1200 610V800H0V590Z" fill="#0F172A" opacity="0.9"/>
  <rect x="290" y="410" width="460" height="120" rx="32" fill="#F8FAFC"/>
  <path d="M390 355H620C675 355 725 390 745 430H345C360 386 405 355 390 355Z" fill="#E2E8F0"/>
  <rect x="405" y="375" width="120" height="52" rx="12" fill="#0EA5E9" opacity="0.7"/>
  <rect x="535" y="375" width="130" height="52" rx="12" fill="#0EA5E9" opacity="0.7"/>
  <circle cx="400" cy="545" r="42" fill="#111827"/>
  <circle cx="660" cy="545" r="42" fill="#111827"/>
  <circle cx="400" cy="545" r="18" fill="#94A3B8"/>
  <circle cx="660" cy="545" r="18" fill="#94A3B8"/>
  <text x="90" y="120" fill="white" font-size="54" font-family="Arial, sans-serif" font-weight="700">Bowo Travel Car 1</text>
  <text x="90" y="176" fill="#E2E8F0" font-size="28" font-family="Arial, sans-serif">Replace this sample with your real car photo</text>
</svg>